<svg xmlns="http://www.w3.org/2000/svg" width="24" height="20" viewBox="0 0 24 20">
  <path id="_104501_twitter_bird_icon" data-name="104501_twitter_bird_icon" d="M27.574,12.693a9.608,9.608,0,0,1-2.828.795,5.038,5.038,0,0,0,2.165-2.794,9.71,9.71,0,0,1-3.127,1.226,4.861,4.861,0,0,0-3.594-1.595,4.988,4.988,0,0,0-4.923,5.049,5.178,5.178,0,0,0,.128,1.151A13.869,13.869,0,0,1,5.245,11.25a5.141,5.141,0,0,0,1.524,6.741,4.818,4.818,0,0,1-2.23-.632c0,.021,0,.042,0,.064a5.023,5.023,0,0,0,3.95,4.951,4.835,4.835,0,0,1-1.3.177,4.761,4.761,0,0,1-.927-.091,4.947,4.947,0,0,0,4.6,3.507,9.735,9.735,0,0,1-7.29,2.091,13.684,13.684,0,0,0,7.548,2.269c9.057,0,14.009-7.693,14.009-14.366q0-.328-.014-.654A10.117,10.117,0,0,0,27.574,12.693Z" transform="translate(-3.574 -10.326)" fill="#1a1a1a"/>
</svg>
