<svg xmlns="http://www.w3.org/2000/svg" width="25" height="25" viewBox="0 0 25 25">
  <g id="_1161954_instagram_icon" data-name="1161954_instagram_icon" transform="translate(-3.7 -5.2)">
    <circle id="Ellipse_474" data-name="Ellipse 474" cx="2.279" cy="2.279" r="2.279" transform="translate(13.82 15.522)" fill="#1034a6"/>
    <path id="Path_3180" data-name="Path 3180" d="M25.743,19.2h-5.7a2.831,2.831,0,0,0-2.02.725,2.831,2.831,0,0,0-.725,2.02v5.7a2.855,2.855,0,0,0,.777,2.072,2.92,2.92,0,0,0,2.02.725h5.646a2.831,2.831,0,0,0,2.02-.725,2.653,2.653,0,0,0,.777-2.02V22a2.92,2.92,0,0,0-.725-2.02A2.773,2.773,0,0,0,25.743,19.2Zm-2.849,9.116a3.522,3.522,0,1,1,0-7.044,3.523,3.523,0,1,1,0,7.044Zm3.678-6.371a.829.829,0,1,1,.829-.829A.818.818,0,0,1,26.572,21.945Z" transform="translate(-6.795 -6.995)" fill="#1034a6"/>
    <path id="Path_3181" data-name="Path 3181" d="M16.2,5.2A12.5,12.5,0,1,0,28.7,17.7,12.491,12.491,0,0,0,16.2,5.2Zm6.656,15.447a4.028,4.028,0,0,1-1.118,2.9,3.954,3.954,0,0,1-2.845,1.067H13.354a3.954,3.954,0,0,1-2.845-1.067,3.828,3.828,0,0,1-1.118-2.9V15.058a3.761,3.761,0,0,1,3.963-3.963h5.589a3.747,3.747,0,0,1,3.913,3.963v5.589Z" fill="#1034a6"/>
  </g>
</svg>
