<svg xmlns="http://www.w3.org/2000/svg" width="21" height="21" viewBox="0 0 21 21">
  <g id="_843786_whatsapp_icon" data-name="843786_whatsapp_icon" transform="translate(-4.112 -3.489)">
    <path id="Path_3243" data-name="Path 3243" d="M22.052,6.541A10.436,10.436,0,0,0,5.6,19.1L4.112,24.489l5.543-1.447a10.487,10.487,0,0,0,5,1.267h0A10.446,10.446,0,0,0,25.112,13.9,10.318,10.318,0,0,0,22.052,6.541Zm-7.4,16.01h0a8.709,8.709,0,0,1-4.423-1.206l-.317-.187-3.289.859L7.5,18.825,7.294,18.5A8.68,8.68,0,0,1,20.8,7.783,8.576,8.576,0,0,1,23.346,13.9,8.682,8.682,0,0,1,14.656,22.551Z" fill="#1a1a1a"/>
    <path id="Path_3244" data-name="Path 3244" d="M26.124,24.057c-.251-.136-1.486-.795-1.716-.885s-.4-.136-.565.136-.649.885-.8,1.067-.293.2-.544.068a6.767,6.767,0,0,1-2.019-1.351,8.144,8.144,0,0,1-1.4-1.885.416.416,0,0,1,.11-.555c.113-.122.251-.318.377-.477a1.9,1.9,0,0,0,.251-.454.538.538,0,0,0-.021-.477c-.063-.136-.565-1.476-.774-2.021s-.411-.459-.565-.467-.314-.01-.481-.01a.892.892,0,0,0-.67.341,3.165,3.165,0,0,0-.879,2.27,5.531,5.531,0,0,0,1.025,2.815,11.611,11.611,0,0,0,4.29,4.109,13.719,13.719,0,0,0,1.431.573,3.185,3.185,0,0,0,1.582.108,2.6,2.6,0,0,0,1.695-1.294,2.453,2.453,0,0,0,.146-1.294C26.543,24.261,26.375,24.193,26.124,24.057Z" transform="translate(-6.885 -7.886)" fill="#1a1a1a"/>
  </g>
</svg>
