<svg xmlns="http://www.w3.org/2000/svg" width="50" height="50" viewBox="0 0 50 50">
  <g id="Address" transform="translate(-170 -681)">
    <circle id="Ellipse_481" data-name="Ellipse 481" cx="25" cy="25" r="25" transform="translate(170 681)" fill="#ecf0fd"/>
    <g id="noun_Pin_3363033" transform="translate(185 692)">
      <g id="Group_1169" data-name="Group 1169">
        <path id="Path_3248" data-name="Path 3248" d="M10.5,0A10.36,10.36,0,0,1,21,10.219c0,4.615-6.012,12.774-8.552,16.73a2.33,2.33,0,0,1-3.9,0C6.012,22.993,0,14.834,0,10.219A10.415,10.415,0,0,1,10.5,0Zm0,5.274a5.029,5.029,0,0,1,5.081,4.945,5.083,5.083,0,0,1-10.161,0A5.029,5.029,0,0,1,10.5,5.274Z" fill="#1034a6"/>
      </g>
    </g>
  </g>
</svg>
