<svg xmlns="http://www.w3.org/2000/svg" width="32" height="32" viewBox="0 0 32 32">
  <g id="noun_Arrow_3134209" transform="translate(0 32) rotate(-90)">
    <path id="Path_3253" data-name="Path 3253" d="M16,0h0A16,16,0,0,0,0,16H0A16,16,0,0,0,16,32h0A16,16,0,0,0,32,16h0A16,16,0,0,0,16,0Zm8,16.032a1.28,1.28,0,0,1-.378.928l-5.267,5.251a1.289,1.289,0,0,1-1.824-1.821L19.616,17.3H9.28a1.28,1.28,0,1,1,0-2.56H19.645l-3.114-3.114A1.29,1.29,0,0,1,18.355,9.8l5.267,5.251a1.28,1.28,0,0,1,.378.912v.064Z" transform="translate(0)" fill="#fff"/>
  </g>
</svg>
