<svg xmlns="http://www.w3.org/2000/svg" width="20.83" height="20.877" viewBox="0 0 20.83 20.877">
  <g id="Call" transform="translate(-5.1 -5)">
    <path id="Path_3183" data-name="Path 3183" d="M49.287,7.528a8.464,8.464,0,0,1,8.443,8.467.464.464,0,1,0,.928,0A9.4,9.4,0,0,0,49.264,6.6a.465.465,0,0,0-.464.464A.471.471,0,0,0,49.287,7.528Z" transform="translate(-33.563 -1.229)" fill="#fff"/>
    <path id="Path_3184" data-name="Path 3184" d="M49.358,20.728a5.41,5.41,0,0,1,5.4,5.4.464.464,0,1,0,.928,0A6.341,6.341,0,0,0,49.358,19.8a.465.465,0,0,0-.464.464A.45.45,0,0,0,49.358,20.728Z" transform="translate(-33.634 -11.367)" fill="#fff"/>
    <path id="Path_3185" data-name="Path 3185" d="M18.005,12.632,15.5,5.278A4.034,4.034,0,0,1,16.66,5c.023,0,.046,0,.046.023.394.9,1.461,4.083,2.389,7.075,0,.023,0,.046-.023.046A3.7,3.7,0,0,1,18.005,12.632Z" transform="translate(-7.988)" fill="#fff"/>
    <path id="Path_3186" data-name="Path 3186" d="M17.6,24.159l7.585,2.575a3.888,3.888,0,0,1-3.131,1.6,17,17,0,0,1-16.956-17A3.823,3.823,0,0,1,6.7,8.2l2.552,7.585h0a13.2,13.2,0,0,0,2.969,4.871,5.3,5.3,0,0,0,.51.51A12.961,12.961,0,0,0,17.6,24.159Z" transform="translate(0 -2.458)" fill="#fff"/>
    <path id="Path_3187" data-name="Path 3187" d="M69.708,71.86a3.156,3.156,0,0,1-.278,1.16L62.1,70.514a4,4,0,0,1,.162-.487.808.808,0,0,1,.974-.441c3.9,1.253,5.822,1.925,6.449,2.2A.085.085,0,0,1,69.708,71.86Z" transform="translate(-43.778 -49.578)" fill="#fff"/>
  </g>
</svg>
