<svg id="icons_Q2" data-name="icons Q2" xmlns="http://www.w3.org/2000/svg" width="25" height="17" viewBox="0 0 25 17">
  <path id="Path_3072" data-name="Path 3072" d="M26.489,10.649A3.082,3.082,0,0,0,24.273,8.5C22.341,8,14.5,8,14.5,8s-7.841,0-9.773.5a3.082,3.082,0,0,0-2.216,2.153A31.315,31.315,0,0,0,2,16.5a31.315,31.315,0,0,0,.511,5.851A3.082,3.082,0,0,0,4.727,24.5c1.932.5,9.773.5,9.773.5s7.841,0,9.773-.5a3.082,3.082,0,0,0,2.216-2.153A31.315,31.315,0,0,0,27,16.5,31.315,31.315,0,0,0,26.489,10.649ZM12,20.143V12.857L18.477,16.5Z" transform="translate(-2 -8)" fill="#1034a6"/>
</svg>
