<svg id="icons_Q2" data-name="icons Q2" xmlns="http://www.w3.org/2000/svg" width="25" height="19" viewBox="0 0 25 19">
  <path id="Path_3071" data-name="Path 3071" d="M27,8.256a10.97,10.97,0,0,1-2.955.8A5.064,5.064,0,0,0,26.318,6.4,13.767,13.767,0,0,1,23.08,7.567a5.434,5.434,0,0,0-5.623-1.176,4.851,4.851,0,0,0-3.3,4.41,3.779,3.779,0,0,0,.17,1.113A15.04,15.04,0,0,1,3.761,6.931a4.288,4.288,0,0,0-.739,2.386,4.651,4.651,0,0,0,2.33,3.976,4.858,4.858,0,0,1-2.33-.583h0a4.808,4.808,0,0,0,4.091,4.719,5.206,5.206,0,0,1-1.364.212l-.966-.106a5.2,5.2,0,0,0,4.83,3.34A10.829,10.829,0,0,1,3.25,22.889H2a15.008,15.008,0,0,0,7.841,2.174c9.432,0,14.6-7.316,14.6-13.626v-.689A10.034,10.034,0,0,0,27,8.256Z" transform="translate(-2 -6.063)" fill="#1034a6"/>
</svg>
