<svg xmlns="http://www.w3.org/2000/svg" width="36" height="36" viewBox="0 0 36 36">
  <g id="Instagram" transform="translate(-3.7 -5.2)">
    <circle id="Ellipse_474" data-name="Ellipse 474" cx="3.282" cy="3.282" r="3.282" transform="translate(18.272 20.064)" fill="#fff"/>
    <path id="Path_3180" data-name="Path 3180" d="M29.458,19.2h-8.2a4.076,4.076,0,0,0-2.909,1.044A4.076,4.076,0,0,0,17.3,23.153v8.2a4.111,4.111,0,0,0,1.119,2.984,4.2,4.2,0,0,0,2.909,1.044h8.13a4.076,4.076,0,0,0,2.909-1.044,3.821,3.821,0,0,0,1.119-2.909v-8.2a4.2,4.2,0,0,0-1.044-2.909A3.994,3.994,0,0,0,29.458,19.2Zm-4.1,13.128a5.072,5.072,0,1,1,0-10.144,5.073,5.073,0,1,1,0,10.144Zm5.3-9.174a1.193,1.193,0,1,1,1.193-1.193A1.178,1.178,0,0,1,30.651,23.153Z" transform="translate(-3.801 -3.913)" fill="#fff"/>
    <path id="Path_3181" data-name="Path 3181" d="M21.7,5.2a18,18,0,1,0,18,18A17.987,17.987,0,0,0,21.7,5.2Zm9.585,22.244a5.8,5.8,0,0,1-1.61,4.171,5.694,5.694,0,0,1-4.1,1.537H17.6a5.694,5.694,0,0,1-4.1-1.537,5.513,5.513,0,0,1-1.61-4.171V19.4A5.415,5.415,0,0,1,17.6,13.688h8.049A5.4,5.4,0,0,1,31.285,19.4v8.049Z" fill="#fff"/>
  </g>
</svg>
