<svg xmlns="http://www.w3.org/2000/svg" width="50" height="50" viewBox="0 0 50 50">
  <g id="mail" transform="translate(-170 -767)">
    <circle id="Ellipse_482" data-name="Ellipse 482" cx="25" cy="25" r="25" transform="translate(170 767)" fill="#ecf0fd"/>
    <g id="noun_Email_1569995" transform="translate(175 761)">
      <g id="Group_1171" data-name="Group 1171" transform="translate(9 24)">
        <path id="Path_3249" data-name="Path 3249" d="M10.683,976.362a1.643,1.643,0,0,0-.622.126l9.764,8.546a.93.93,0,0,0,1.332,0l9.773-8.555a1.649,1.649,0,0,0-.614-.117ZM9.018,977.84a1.836,1.836,0,0,0-.018.252v11.538a1.7,1.7,0,0,0,1.683,1.731H30.317A1.7,1.7,0,0,0,32,989.631V978.093a1.839,1.839,0,0,0-.018-.252l-9.729,8.51a2.675,2.675,0,0,1-3.524,0Z" transform="translate(-9 -976.362)" fill="#1034a6"/>
      </g>
    </g>
  </g>
</svg>
