<svg xmlns="http://www.w3.org/2000/svg" width="50" height="50" viewBox="0 0 50 50">
  <g id="Call" transform="translate(-170 -768)">
    <circle id="Ellipse_483" data-name="Ellipse 483" cx="25" cy="25" r="25" transform="translate(170 768)" fill="#ecf0fd"/>
    <g id="noun_Telephone_3699440" transform="translate(167.501 765.4)">
      <path id="Path_3250" data-name="Path 3250" d="M32.413,37.6A15.53,15.53,0,0,1,17.5,22.563,3.915,3.915,0,0,1,21.351,18.6h0a4.419,4.419,0,0,1,.647.03,4.157,4.157,0,0,1,1.048.3h.031v.03l1.14,6.263-.031.03a3.879,3.879,0,0,1-1.972,1.029,11.747,11.747,0,0,0,7.457,6.868,3.667,3.667,0,0,1,.955-2.027V31.1l6.471.877V32a3.358,3.358,0,0,1,.308.938,4.76,4.76,0,0,1,.092.7A3.888,3.888,0,0,1,33.676,37.6H32.413Z" transform="translate(0 0)" fill="#1034a6"/>
    </g>
  </g>
</svg>
