<svg xmlns="http://www.w3.org/2000/svg" width="40" height="33" viewBox="0 0 40 33">
  <g id="send_message" data-name="send message" transform="translate(-1 -21)">
    <path id="Path_3245" data-name="Path 3245" d="M40.048,54.3H30.365l9.492-11.08a3.941,3.941,0,0,0-.254-5.509L24.27,25.109a4.182,4.182,0,0,0-5.81.5L2.111,44.685a3.99,3.99,0,0,0,.508,5.7L7.381,54.3H1.952a.934.934,0,1,0,0,1.867h38.1a.934.934,0,1,0,0-1.867ZM23.667,46.148c-3.556,4.171-13.651,4.233-14.1,4.233a.934.934,0,1,1,0-1.867,33.966,33.966,0,0,0,5.3-.5c3.587-.591,6.127-1.65,7.333-3.05s1.841-4.046,1.81-7.594a28.637,28.637,0,0,0-.444-5.2.947.947,0,0,1,.762-1.089.964.964,0,0,1,1.111.747C25.54,32.236,27.222,42.009,23.667,46.148Z" transform="translate(0 -2.17)" fill="#1034a6"/>
    <path id="Path_3246" data-name="Path 3246" d="M6,21.942V32.623a.942.942,0,0,0,1.885,0V21.942a.942.942,0,1,0-1.885,0Z" transform="translate(-3.429)" fill="#a61034"/>
    <path id="Path_3247" data-name="Path 3247" d="M23,21.942v4.4a.942.942,0,0,0,1.885,0v-4.4a.942.942,0,1,0-1.885,0Z" transform="translate(-15.012)" fill="#a61034"/>
  </g>
</svg>
