<svg id="Twitter" xmlns="http://www.w3.org/2000/svg" width="36" height="36" viewBox="0 0 36 36">
  <g id="invisible_box" data-name="invisible box">
    <rect id="Rectangle_18" data-name="Rectangle 18" width="36" height="36" fill="none"/>
    <rect id="Rectangle_19" data-name="Rectangle 19" width="36" height="36" fill="none"/>
  </g>
  <g id="icons_Q2" data-name="icons Q2" transform="translate(2 6.562)">
    <path id="Path_3071" data-name="Path 3071" d="M34,8.7a14.768,14.768,0,0,1-3.782.956,6.21,6.21,0,0,0,2.909-3.186,18.378,18.378,0,0,1-4.145,1.4,7.291,7.291,0,0,0-7.2-1.414,5.886,5.886,0,0,0-4.22,5.3,4.288,4.288,0,0,0,.218,1.338A19.776,19.776,0,0,1,4.255,7.106a4.936,4.936,0,0,0-.945,2.868,5.54,5.54,0,0,0,2.982,4.779,6.542,6.542,0,0,1-2.982-.7h0C3.251,16.806,5.46,19.2,8.545,19.724a7.063,7.063,0,0,1-1.745.255l-1.236-.127a6.651,6.651,0,0,0,6.182,4.015A14.488,14.488,0,0,1,3.6,26.287H2A20.16,20.16,0,0,0,12.036,28.9c12.073,0,18.691-8.794,18.691-16.377v-.828A12.512,12.512,0,0,0,34,8.7Z" transform="translate(-2 -6.063)" fill="#fff"/>
  </g>
</svg>
