<svg id="Whatsapp" xmlns="http://www.w3.org/2000/svg" width="38" height="38" viewBox="0 0 38 38">
  <g id="invisible_box" data-name="invisible box">
    <rect id="Rectangle_22" data-name="Rectangle 22" width="38" height="38" fill="none"/>
  </g>
  <g id="Icons" transform="translate(2.375 1.549)">
    <g id="Group_955" data-name="Group 955">
      <path id="Path_3073" data-name="Path 3073" d="M31.421,6.82A16.546,16.546,0,0,0,3.158,18.458a15.675,15.675,0,0,0,2.217,8.233L3,35.241l8.788-2.3A16.071,16.071,0,0,0,19.7,34.924,16.467,16.467,0,0,0,31.421,6.82ZM19.7,32.153a13.537,13.537,0,0,1-7.521-2.217L6.958,31.362,8.383,26.3a14.171,14.171,0,0,1-2.454-7.837A13.775,13.775,0,1,1,19.7,32.153Z" transform="translate(-3 -1.956)" fill="#fff"/>
      <path id="Path_3074" data-name="Path 3074" d="M29.412,24.28a23.117,23.117,0,0,0-2.85-1.346c-.317-.158-.633-.238-.871.158s-1.108,1.346-1.346,1.663a.633.633,0,0,1-.871.079,12.033,12.033,0,0,1-3.325-2.058,11.875,11.875,0,0,1-2.3-2.85.554.554,0,0,1,.158-.792l.633-.792a2.771,2.771,0,0,0,.4-.633.713.713,0,0,0,0-.712c-.158-.237-.95-2.217-1.267-3.087s-.712-.712-.95-.712h-.792a1.346,1.346,0,0,0-1.108.554,4.354,4.354,0,0,0-1.425,3.4,8.233,8.233,0,0,0,1.663,4.275c.238.237,2.929,4.433,7.046,6.175a12.983,12.983,0,0,0,2.375.871,5.067,5.067,0,0,0,2.612.158,4,4,0,0,0,2.771-1.9,3.244,3.244,0,0,0,.237-1.979,1.662,1.662,0,0,0-.792-.475Z" transform="translate(-5.187 -4.296)" fill="#fff"/>
    </g>
  </g>
</svg>
