<svg id="Youtube" xmlns="http://www.w3.org/2000/svg" width="36" height="36" viewBox="0 0 36 36">
  <g id="invisible_box" data-name="invisible box">
    <rect id="Rectangle_20" data-name="Rectangle 20" width="36" height="36" fill="none"/>
    <rect id="Rectangle_21" data-name="Rectangle 21" width="36" height="36" fill="none"/>
  </g>
  <g id="icons_Q2" data-name="icons Q2" transform="translate(1.499 5.995)">
    <path id="Path_3072" data-name="Path 3072" d="M34.3,11.6a4.121,4.121,0,0,0-2.923-2.923C28.827,8,18.486,8,18.486,8S8.145,8,5.6,8.674A4.121,4.121,0,0,0,2.674,11.6,43.736,43.736,0,0,0,2,19.54a43.736,43.736,0,0,0,.674,7.943A4.121,4.121,0,0,0,5.6,30.406c2.548.674,12.889.674,12.889.674s10.341,0,12.889-.674A4.121,4.121,0,0,0,34.3,27.483a43.736,43.736,0,0,0,.674-7.943A43.736,43.736,0,0,0,34.3,11.6ZM15.189,24.486V14.594l8.543,4.946Z" transform="translate(-2 -8)" fill="#fff"/>
  </g>
</svg>
